<svg width="200" height="200" viewBox="0 0 200 200" xmlns="http://www.w3.org/2000/svg">
  <!-- Background Circle -->
  <circle cx="100" cy="100" r="95" fill="#FF6B9D" opacity="0.1"/>
  
  <!-- Main Circle -->
  <circle cx="100" cy="100" r="85" fill="none" stroke="#FF6B9D" stroke-width="3"/>
  
  <!-- Strong Woman Silhouette -->
  <g transform="translate(100, 100)">
    <!-- Head -->
    <circle cx="0" cy="-35" r="12" fill="#FF6B9D"/>
    
    <!-- Body -->
    <path d="M 0,-23 L 0,15" stroke="#FF6B9D" stroke-width="8" stroke-linecap="round"/>
    
    <!-- Arms (flexing) -->
    <path d="M 0,-15 L -20,-10 L -25,-25" stroke="#FF6B9D" stroke-width="6" stroke-linecap="round" fill="none"/>
    <path d="M 0,-15 L 20,-10 L 25,-25" stroke="#FF6B9D" stroke-width="6" stroke-linecap="round" fill="none"/>
    
    <!-- Legs -->
    <path d="M 0,15 L -12,40" stroke="#FF6B9D" stroke-width="6" stroke-linecap="round"/>
    <path d="M 0,15 L 12,40" stroke="#FF6B9D" stroke-width="6" stroke-linecap="round"/>
    
    <!-- Heart symbol on chest -->
    <path d="M -5,-5 C -5,-8 -8,-10 -10,-8 C -12,-6 -10,-3 -5,2 C 0,6 5,2 10,-3 C 12,-6 10,-8 8,-10 C 6,-8 3,-8 0,-5 Z" fill="#FF1744" opacity="0.8"/>
  </g>
  
  <!-- Text -->
  <text x="100" y="175" font-family="Arial, sans-serif" font-size="24" font-weight="bold" fill="#FF6B9D" text-anchor="middle">HER-WILL</text>
  <text x="100" y="190" font-family="Arial, sans-serif" font-size="10" fill="#666" text-anchor="middle">WOMEN'S FITNESS</text>
</svg>
